<svg width="21" height="21" viewBox="0 0 21 21" fill="none" xmlns="http://www.w3.org/2000/svg">
<path d="M20.0814 9.76758C19.5925 9.76758 19.1894 10.1235 19.1894 10.6167C19.1465 13.8287 17.294 16.7319 14.4594 18.2885C10.1882 20.6343 5.1965 18.5287 3.2839 15.6726L5.98127 16.2344C6.42726 16.3245 6.91613 16.0543 7.00619 15.5654C7.09625 15.1194 6.82608 14.6306 6.33721 14.5405L1.03251 13.4255C0.723746 13.3526 -0.0867538 13.5756 0.00759009 14.4076L0.676574 19.7595C0.719457 20.2054 1.07968 20.5185 1.52567 20.5185C2.19036 20.5185 2.46053 20.0296 2.41765 19.5365L2.1046 16.9248C6.44013 22.1266 11.9421 21.4019 15.2613 19.8967C18.6963 18.0655 20.8833 14.5448 20.9262 10.6596C20.9305 10.1707 20.5703 9.76758 20.0814 9.76758Z" fill="white"/>
<path d="M0.852513 11.2301C1.34139 11.2301 1.74449 10.8742 1.74449 10.381C1.78737 7.16901 3.63995 4.2658 6.47455 2.70912C10.7458 0.363392 15.7374 2.46898 17.65 5.32502L14.9526 4.76325C14.5066 4.67319 14.0178 4.94336 13.9277 5.43223C13.8377 5.87822 14.1078 6.36709 14.5967 6.45715L19.9057 7.57212C20.2144 7.64502 21.0249 7.42203 20.9306 6.59009L20.2616 1.23822C20.2187 0.792228 19.8585 0.479178 19.4125 0.479178C18.7478 0.479178 18.4777 0.968051 18.5205 1.46121L18.8293 4.07282C14.4938 -1.12467 8.99182 -0.404224 5.67263 1.10528C2.23765 2.93212 0.0505899 6.45715 0.00341797 10.3381C0.00341797 10.8313 0.36364 11.2301 0.852513 11.2301Z" fill="white"/>
</svg>
