<svg width="24" height="25" viewBox="0 0 24 25" fill="none" xmlns="http://www.w3.org/2000/svg">
<path d="M10.8072 2.5C10.2902 2.5 9.79626 2.70431 9.43026 3.07031L9.00057 3.5H4.00057C3.86806 3.49813 3.7365 3.52261 3.61353 3.57202C3.49056 3.62143 3.37864 3.6948 3.28427 3.78784C3.1899 3.88088 3.11496 3.99176 3.06381 4.11401C3.01267 4.23627 2.98633 4.36747 2.98633 4.5C2.98633 4.63253 3.01267 4.76373 3.06381 4.88599C3.11496 5.00824 3.1899 5.11912 3.28427 5.21216C3.37864 5.3052 3.49056 5.37857 3.61353 5.42798C3.7365 5.47739 3.86806 5.50187 4.00057 5.5H20.0006C20.1331 5.50187 20.2646 5.47739 20.3876 5.42798C20.5106 5.37857 20.6225 5.3052 20.7169 5.21216C20.8112 5.11912 20.8862 5.00824 20.9373 4.88599C20.9885 4.76373 21.0148 4.63253 21.0148 4.5C21.0148 4.36747 20.9885 4.23627 20.9373 4.11401C20.8862 3.99176 20.8112 3.88088 20.7169 3.78784C20.6225 3.6948 20.5106 3.62143 20.3876 3.57202C20.2646 3.52261 20.1331 3.49813 20.0006 3.5H15.0006L14.5709 3.07031C14.2059 2.70431 13.7109 2.5 13.1939 2.5H10.8072ZM4.3658 7.5L5.89315 20.7637C6.02515 21.7537 6.87757 22.5 7.87557 22.5H16.1236C17.1216 22.5 17.975 21.7549 18.108 20.7559L19.6353 7.5H4.3658Z" fill="black"/>
</svg>
